<svg width="12" height="12" viewBox="0 0 12 12" fill="none" xmlns="http://www.w3.org/2000/svg">
<path d="M3.62582 9.46295L2.1163 10.7319C2.06164 10.7779 1.99499 10.8073 1.9242 10.8166C1.8534 10.826 1.78141 10.8149 1.71667 10.7848C1.65194 10.7546 1.59716 10.7066 1.55877 10.6464C1.52039 10.5862 1.5 10.5163 1.5 10.4449V3C1.5 2.90054 1.53951 2.80516 1.60984 2.73484C1.68016 2.66451 1.77554 2.625 1.875 2.625H10.125C10.2245 2.625 10.3198 2.66451 10.3902 2.73484C10.4605 2.80516 10.5 2.90054 10.5 3V9C10.5 9.09946 10.4605 9.19484 10.3902 9.26517C10.3198 9.33549 10.2245 9.375 10.125 9.375H3.86713C3.77885 9.375 3.6934 9.40614 3.62582 9.46295Z" stroke="#5361F8" stroke-width="1.5" stroke-linecap="round" stroke-linejoin="round"/>
</svg>
