<svg width="16" height="17" viewBox="0 0 16 17" fill="none" xmlns="http://www.w3.org/2000/svg">
<path d="M13.1426 2.74241L1.49708 6.02703C1.39911 6.05467 1.31191 6.11154 1.24713 6.19006C1.18235 6.26858 1.14308 6.365 1.13456 6.46644C1.12605 6.56788 1.1487 6.6695 1.19949 6.75771C1.25027 6.84593 1.32678 6.91655 1.41877 6.96013L6.76945 9.49466C6.87381 9.54409 6.95784 9.62812 7.00727 9.73248L9.5418 15.0832C9.58538 15.1752 9.65599 15.2517 9.74421 15.3024C9.83243 15.3532 9.93405 15.3759 10.0355 15.3674C10.1369 15.3589 10.2333 15.3196 10.3119 15.2548C10.3904 15.19 10.4473 15.1028 10.4749 15.0048L13.7595 3.35936C13.7836 3.27382 13.7845 3.18339 13.7621 3.09739C13.7397 3.01139 13.6947 2.93293 13.6318 2.87008C13.569 2.80723 13.4905 2.76227 13.4045 2.73983C13.3185 2.71739 13.2281 2.71828 13.1426 2.74241Z" stroke="#5361F8" stroke-width="2" stroke-linecap="round" stroke-linejoin="round"/>
<path d="M6.92969 9.5711L9.75811 6.74268" stroke="#5361F8" stroke-width="2" stroke-linecap="round" stroke-linejoin="round"/>
</svg>
